<?xml version="1.0" encoding="UTF-8"?><svg id="b" xmlns="http://www.w3.org/2000/svg" xmlns:xlink="http://www.w3.org/1999/xlink" viewBox="0 0 549.78 445.74"><defs><linearGradient id="d" x1="274.82" y1="189.77" x2="274.82" y2="292.83" gradientUnits="userSpaceOnUse"><stop offset="0" stop-color="#fad860"/><stop offset="1" stop-color="#f76e1e"/></linearGradient><linearGradient id="e" x1="274.89" y1="179.56" x2="274.89" y2="287.83" gradientUnits="userSpaceOnUse"><stop offset=".32" stop-color="#3e55fc"/><stop offset="1" stop-color="#2d3db6"/></linearGradient><linearGradient id="f" x1="274.85" y1="181.77" x2="274.85" y2="245.29" gradientUnits="userSpaceOnUse"><stop offset="0" stop-color="#ee4a59"/><stop offset="1" stop-color="#a2071e"/></linearGradient><linearGradient id="g" x1="274.89" y1="174.28" x2="274.89" y2="232.33" gradientUnits="userSpaceOnUse"><stop offset="0" stop-color="#4bff29"/><stop offset="1" stop-color="#38971f"/></linearGradient><linearGradient id="h" x1="275.12" y1="4.83" x2="275.12" y2="161.51" gradientUnits="userSpaceOnUse"><stop offset="0" stop-color="#7218e8"/><stop offset="1" stop-color="#e95f62"/></linearGradient></defs><g id="c"><path d="M340.3,286.65c-.13.23-.23.46-.36.66-1.31,2.2-3.68,3.91-6.25,3.98-.85.04-1.68-.13-2.5-.36-11.27-3.02-8.78-16.5-11.41-25.24-.72-2.4-2.2-5.1-4.7-5.29-1.44-.1-2.79.72-3.81,1.77-2.11,2.14-3.06,5.13-4.37,7.82-1.32,2.7-3.36,5.42-6.31,5.98-3.42.62-6.7-1.97-8.32-5.06-1.61-3.09-2-6.64-2.93-9.99-.92-3.36-2.66-6.8-5.79-8.29-4.73-2.2-10.48,1.21-12.88,5.88-2.07,4.04-2.53,9.07-5.82,12.2-3.36,3.16-9.24,3.09-12.49-.2-2.79-2.83-3.48-7.23-6.25-10.12-2.86-2.96-7.79-3.62-11.3-1.51-3.35,2-5.06,5.91-5.85,9.73-.79,3.81-.85,7.75-1.94,11.5-.59,2-1.51,4.01-3.16,5.29-3.09,2.37-7.82,1.35-10.62-1.38-2.79-2.7-4.01-6.61-4.8-10.42-1.97-9.66-.82-19.76-.82-29.58v-59h134.63c0,18.83,0,67.81.06,86.64,0,4.73.2,10.62-2.04,14.99h0Z" fill="url(#d)"/><path d="M291.31,241.39c1.74,3.52,1.91,8.29,4.6,11.31,4.77,5.36,12.52,2.37,14.46-3.84.23-.69.36-1.41.53-2.11.33-1.28.75-2.53,1.28-3.75.33-.76.72-1.48,1.25-2.11,1.84-2.14,5.29-2.4,7.82-1.12,2.53,1.28,4.27,3.75,5.43,6.34,1.02,2.27,1.67,4.73,3.09,6.8,1.38,2.07,3.78,3.75,6.24,3.35,1.94-.33,3.48-1.87,4.44-3.58,1.91-3.45,1.88-7.59,1.81-11.5-.23-13.84-.1-27.68-.1-41.51v-22.78h-134.63v26.69c0,7.36-.46,16.63,2.82,23.5,2.73,5.72,7.86,9.96,14.3,9.5,4.64-.33,8.71-1.48,12.63,1.91,1.87,1.61,3.19,3.75,4.21,6.02,3.38,7.62,3.25,16.24,4.11,24.55.36,3.62.99,7.27,2.8,10.39,1.84,3.12,5.12,5.62,8.74,5.52,3.22-.07,6.18-2.17,7.95-4.9,1.78-2.7,2.56-5.95,3.06-9.14.89-5.62.98-11.34,1.45-17.03.43-5.42,1.54-11.37,5.88-14.62,2.17-1.61,4.9-2.34,7.56-2.37,2.01-.03,4.08.33,5.69,1.51,1.25.72,2.04,1.78,2.6,2.96h0Z" fill="url(#e)"/><path d="M207.34,177.23v15.25c0,10.68-.16,21.36.53,32.01.49,7.17.03,20.18,9.46,22.12,4.11.82,8.28-1.87,10.45-5.45,2.17-3.59,2.79-7.82,3.42-11.96.59-4.14,1.25-8.41,3.48-11.93,1.58-2.5,4.24-4.63,7.17-4.37,2.76.23,4.89,2.5,6.31,4.86,1.88,3.16,2.89,6.71,4.44,9.99,1.55,3.29,3.85,6.51,7.23,7.92,4.44,1.84,9.89-.1,12.95-3.78,2.01-2.4,2.53-5.06,3.71-7.83,1.41-3.35,2.66-6.77,4.18-10.06,1.97-4.27,4.47-8.41,8.09-11.47,3.61-3.06,8.45-4.87,13.11-4.04,4.44.79,7.73,3.81,10.16,7.43,2.86,4.24,3.19,9.3,5,14.04,1.58,4.08,4.83,8.05,9.24,8.38,4.04.3,7.75-2.7,9.6-6.31,1.84-3.61,2.2-7.75,2.63-11.8.33-3.09.66-6.31,1.87-9.2,1.15-2.73,2.01-3.85,2.01-6.97v-16.83h-135.03Z" fill="url(#f)"/><path d="M342.5,173.12c0,3.65-.03,8.41-.06,9.14-.07,4.8-1.15,9.76-3.36,14.1-.63,1.21-1.38,2.4-2.43,3.29-1.91,1.64-4.6,2.2-7.07,1.67-2.47-.56-4.6-2.14-6.05-4.17-1.61-2.27-2.63-5.26-5.23-6.25-1.41-.53-2.99-.33-4.4.2-1.38.5-2.66,1.29-3.68,2.34-3.48,3.61-4.21,9.83-4.37,14.59-.13,3.78.1,7.56-.39,11.3-.52,3.75-1.87,7.53-4.66,10.06-2.8,2.53-7.23,3.48-10.45,1.51-1.12-.69-2.04-1.71-2.79-2.79-4.24-6.14-3.39-14.13-4.8-21.13-.75-3.65-2.33-6.84-4.93-9.5-2.46-2.53-6.02-2.23-8.97-.46-2.27,1.35-3.95,3.55-5.03,5.95-1.94,4.34-3.19,8.48-8.58,9.3-2,.3-4.21-.1-5.82-1.38-.86-.69-1.55-1.58-2.07-2.56-1.78-3.16-2.14-6.9-2.5-10.49-.36-3.61-.79-7.33-2.66-10.45-1.84-3.12-5.52-5.46-9.04-4.57-3.52.86-5.62,4.47-6.67,7.92-.95,3.12-1.38,6.47-2.66,9.46-.82,1.94-2.23,3.78-4.24,4.44-2.7.89-5.72-.59-7.46-2.79-4.67-5.85-4.8-15.32-4.83-22.42v-6.31h135.22Z" fill="url(#g)"/><path d="M275.08,91.02l12.62,2.07c-2.14-7.17-1.32-15.45.66-22.84,2.73-10.22,7.36-20.08,8.05-30.64,1.05-15.77-7.59-31.82-21.33-39.61-13.77,7.79-22.38,23.83-21.33,39.61.72,10.55,5.32,20.41,8.05,30.64,2.66,9.89,3.25,21.3-2.56,29.61l-51.44,29.71v37.47h134.63v-37.47l-67.35-38.55ZM271.14,146.2h-10.45v-10.42h10.45v10.42ZM271.14,131.84h-10.45v-10.45h10.45v10.45ZM269.83,27.25c0-2.89,2.34-5.26,5.26-5.26s5.26,2.34,5.26,5.26-2.37,5.26-5.26,5.26-5.26-2.37-5.26-5.26h0ZM285.51,146.2h-10.45v-10.42h10.45v10.42ZM285.51,131.84h-10.45v-10.45h10.45v10.45Z" fill="url(#h)"/><path d="M88.24,435.93v-29.79h12.84c1.45,0,2.8.3,4.03.9,1.23.6,2.29,1.38,3.17,2.35.88.96,1.57,2.07,2.08,3.31.5,1.25.76,2.5.76,3.75s-.24,2.59-.71,3.84c-.48,1.25-1.14,2.35-1.99,3.31-.85.96-1.89,1.73-3.1,2.31s-2.55.86-4.01.86h-4.87v9.15h-8.18ZM96.42,419.65h4.32c.5,0,.97-.23,1.41-.69.43-.46.65-1.29.65-2.5s-.25-2.07-.76-2.52-1.01-.67-1.51-.67h-4.11v6.38Z" fill="#d75575"/><path d="M128.31,406.14h7.47l10.32,29.79h-8.31l-1.8-5.83h-7.93l-1.76,5.83h-8.35l10.36-29.79ZM134.68,424.64l-2.64-9.23-2.77,9.23h5.41Z" fill="#d75575"/><path d="M156.96,435.93v-29.79h8.18v29.79h-8.18Z" fill="#d75575"/><path d="M186.83,421.29v14.64h-8.18v-29.79h6.38l11.96,15.15v-15.15h8.18v29.79h-6.5l-11.83-14.64Z" fill="#d75575"/><path d="M241.87,413.27h-8.56v22.66h-8.18v-22.66h-8.6v-7.13h25.34v7.13Z" fill="#d75575"/><path d="M253.24,435.93v-29.79h8.18v29.79h-8.18Z" fill="#d75575"/><path d="M283.11,421.29v14.64h-8.18v-29.79h6.38l11.96,15.15v-15.15h8.18v29.79h-6.5l-11.83-14.64Z" fill="#d75575"/><path d="M335.18,433.45c-2.13,1.79-4.57,2.69-7.34,2.69-1.93,0-3.78-.34-5.54-1.03-1.76-.68-3.3-1.68-4.62-3-1.32-1.31-2.36-2.92-3.15-4.83-.78-1.9-1.17-4.07-1.17-6.5,0-2.1.39-4.05,1.17-5.85.78-1.8,1.86-3.37,3.23-4.7,1.37-1.33,2.99-2.38,4.85-3.15,1.86-.77,3.87-1.15,6.02-1.15,1.34,0,2.63.15,3.86.44,1.23.29,2.37.73,3.42,1.3,1.05.57,1.99,1.26,2.83,2.06s1.52,1.7,2.06,2.71l-6.08,4.66c-.59-1.17-1.47-2.12-2.64-2.83-1.17-.71-2.42-1.07-3.73-1.07-.98,0-1.87.2-2.69.59s-1.51.94-2.1,1.64c-.59.7-1.05,1.53-1.38,2.5-.34.97-.5,2.02-.5,3.17s.17,2.24.5,3.19c.33.95.8,1.77,1.41,2.45.6.69,1.32,1.22,2.16,1.59.84.38,1.78.57,2.81.57,2.38,0,4.47-.98,6.29-2.94h-5.16v-5.87h12.25v15.86h-6.75v-2.48Z" fill="#d75575"/><path d="M372.18,435.93v-29.79h8.18v22.66h13.51v7.13h-21.69Z" fill="#d75575"/><path d="M405.11,435.93v-29.79h8.18v22.66h13.51v7.13h-21.69Z" fill="#d75575"/><path d="M436.03,420.78c0-1.82.34-3.61,1.03-5.37.68-1.76,1.68-3.34,3-4.74s2.91-2.53,4.78-3.4c1.87-.87,4.01-1.3,6.42-1.3,2.88,0,5.38.59,7.49,1.78,2.11,1.19,3.68,2.76,4.72,4.72l-6.25,4.45c-.28-.73-.65-1.33-1.11-1.8-.46-.48-.97-.85-1.53-1.13-.56-.28-1.14-.48-1.74-.59-.6-.11-1.18-.17-1.74-.17-1.17,0-2.19.23-3.04.69-.85.46-1.55,1.06-2.1,1.8-.54.74-.95,1.58-1.22,2.52-.27.94-.4,1.87-.4,2.79,0,1.04.15,2.03.46,2.98.31.95.75,1.79,1.34,2.52.59.73,1.31,1.31,2.16,1.74.85.43,1.81.65,2.87.65.56,0,1.13-.06,1.72-.19.59-.13,1.15-.33,1.7-.63.55-.29,1.03-.67,1.47-1.13.43-.46.78-1.03,1.03-1.7l6.67,3.99c-.45,1.09-1.13,2.07-2.04,2.94s-1.94,1.59-3.1,2.18c-1.16.59-2.41,1.04-3.73,1.34-1.33.31-2.62.46-3.88.46-2.21,0-4.23-.44-6.06-1.32-1.83-.88-3.41-2.05-4.74-3.5-1.33-1.45-2.36-3.1-3.08-4.95s-1.09-3.72-1.09-5.62Z" fill="#d75575"/><path d="M41.34,337.67v42.6h-11.7v-16.68h-14.28v16.68H3.66v-42.6h11.7v15.72h14.28v-15.72h11.7Z" fill="#7042bf"/><path d="M65.7,337.67h10.68l14.76,42.6h-11.88l-2.58-8.34h-11.34l-2.52,8.34h-11.94l14.82-42.6ZM74.82,364.13l-3.78-13.2-3.96,13.2h7.74Z" fill="#7042bf"/><path d="M117.66,370.25c1.36,0,2.52-.3,3.48-.9.96-.6,1.74-1.39,2.34-2.37.6-.98,1.04-2.11,1.32-3.39.28-1.28.42-2.62.42-4.02v-21.9h11.7v21.9c0,2.96-.38,5.73-1.14,8.31-.76,2.58-1.94,4.81-3.54,6.69-1.6,1.88-3.61,3.36-6.03,4.44-2.42,1.08-5.27,1.62-8.55,1.62s-6.31-.57-8.73-1.71c-2.42-1.14-4.41-2.67-5.97-4.59-1.56-1.92-2.7-4.15-3.42-6.69-.72-2.54-1.08-5.23-1.08-8.07v-21.9h11.7v21.9c0,1.4.14,2.75.42,4.05.28,1.3.72,2.44,1.32,3.42.6.98,1.37,1.76,2.31,2.34.94.58,2.09.87,3.45.87Z" fill="#7042bf"/><path d="M175.44,351.59c-1.2-.72-2.44-1.36-3.72-1.92-1.08-.48-2.29-.93-3.63-1.35-1.34-.42-2.65-.63-3.93-.63-1.04,0-1.87.16-2.49.48-.62.32-.93.86-.93,1.62,0,.56.18,1.02.54,1.38.36.36.88.69,1.56.99.68.3,1.51.59,2.49.87.98.28,2.09.62,3.33,1.02,1.96.6,3.73,1.26,5.31,1.98,1.58.72,2.93,1.57,4.05,2.55,1.12.98,1.98,2.17,2.58,3.57.6,1.4.9,3.1.9,5.1,0,2.56-.47,4.71-1.41,6.45-.94,1.74-2.18,3.13-3.72,4.17-1.54,1.04-3.28,1.79-5.22,2.25-1.94.46-3.89.69-5.85.69-1.56,0-3.16-.12-4.8-.36-1.64-.24-3.27-.58-4.89-1.02-1.62-.44-3.18-.96-4.68-1.56-1.5-.6-2.89-1.28-4.17-2.04l5.04-10.26c1.4.88,2.86,1.66,4.38,2.34,1.28.6,2.73,1.14,4.35,1.62,1.62.48,3.27.72,4.95.72,1.28,0,2.17-.17,2.67-.51.5-.34.75-.79.75-1.35,0-.6-.25-1.11-.75-1.53-.5-.42-1.19-.79-2.07-1.11-.88-.32-1.89-.64-3.03-.96-1.14-.32-2.35-.7-3.63-1.14-1.88-.64-3.5-1.33-4.86-2.07-1.36-.74-2.48-1.58-3.36-2.52-.88-.94-1.53-2.01-1.95-3.21s-.63-2.58-.63-4.14c0-2.36.43-4.44,1.29-6.24.86-1.8,2.03-3.3,3.51-4.5,1.48-1.2,3.17-2.11,5.07-2.73,1.9-.62,3.91-.93,6.03-.93,1.56,0,3.08.15,4.56.45,1.48.3,2.91.68,4.29,1.14,1.38.46,2.67.96,3.87,1.5,1.2.54,2.28,1.05,3.24,1.53l-5.04,9.66Z" fill="#7042bf"/><path d="M231.36,380.63c-3.24,0-6.18-.62-8.82-1.86-2.64-1.24-4.9-2.87-6.78-4.89-1.88-2.02-3.34-4.33-4.38-6.93-1.04-2.6-1.56-5.28-1.56-8.04s.54-5.5,1.62-8.1c1.08-2.6,2.59-4.89,4.53-6.87,1.94-1.98,4.24-3.56,6.9-4.74,2.66-1.18,5.57-1.77,8.73-1.77s6.18.62,8.82,1.86c2.64,1.24,4.9,2.88,6.78,4.92,1.88,2.04,3.33,4.36,4.35,6.96,1.02,2.6,1.53,5.26,1.53,7.98s-.54,5.49-1.62,8.07-2.58,4.86-4.5,6.84c-1.92,1.98-4.21,3.57-6.87,4.77-2.66,1.2-5.57,1.8-8.73,1.8ZM221.7,359.03c0,1.44.2,2.83.6,4.17.4,1.34,1,2.53,1.8,3.57.8,1.04,1.81,1.88,3.03,2.52,1.22.64,2.67.96,4.35.96s3.14-.33,4.38-.99c1.24-.66,2.25-1.52,3.03-2.58.78-1.06,1.36-2.27,1.74-3.63.38-1.36.57-2.74.57-4.14s-.2-2.83-.6-4.17c-.4-1.34-1.01-2.52-1.83-3.54-.82-1.02-1.84-1.84-3.06-2.46-1.22-.62-2.65-.93-4.29-.93s-3.13.32-4.35.96c-1.22.64-2.23,1.49-3.03,2.55-.8,1.06-1.39,2.26-1.77,3.6-.38,1.34-.57,2.71-.57,4.11Z" fill="#7042bf"/><path d="M264.06,380.27v-42.6h29.22v10.2h-17.52v7.08h14.28v9.48h-14.28v15.84h-11.7Z" fill="#7042bf"/><path d="M319.44,358.61c0-2.6.49-5.16,1.47-7.68.98-2.52,2.41-4.78,4.29-6.78,1.88-2,4.16-3.62,6.84-4.86,2.68-1.24,5.74-1.86,9.18-1.86,4.12,0,7.69.85,10.71,2.55,3.02,1.7,5.27,3.95,6.75,6.75l-8.94,6.36c-.4-1.04-.93-1.9-1.59-2.58-.66-.68-1.39-1.22-2.19-1.62-.8-.4-1.63-.68-2.49-.84-.86-.16-1.69-.24-2.49-.24-1.68,0-3.13.33-4.35.99-1.22.66-2.22,1.52-3,2.58-.78,1.06-1.36,2.26-1.74,3.6-.38,1.34-.57,2.67-.57,3.99,0,1.48.22,2.9.66,4.26.44,1.36,1.08,2.56,1.92,3.6.84,1.04,1.87,1.87,3.09,2.49,1.22.62,2.59.93,4.11.93.8,0,1.62-.09,2.46-.27.84-.18,1.65-.48,2.43-.9.78-.42,1.48-.96,2.1-1.62.62-.66,1.11-1.47,1.47-2.43l9.54,5.7c-.64,1.56-1.61,2.96-2.91,4.2-1.3,1.24-2.78,2.28-4.44,3.12-1.66.84-3.44,1.48-5.34,1.92-1.9.44-3.75.66-5.55.66-3.16,0-6.05-.63-8.67-1.89-2.62-1.26-4.88-2.93-6.78-5.01-1.9-2.08-3.37-4.44-4.41-7.08s-1.56-5.32-1.56-8.04Z" fill="#7042bf"/><path d="M387.78,380.63c-3.24,0-6.18-.62-8.82-1.86-2.64-1.24-4.9-2.87-6.78-4.89-1.88-2.02-3.34-4.33-4.38-6.93-1.04-2.6-1.56-5.28-1.56-8.04s.54-5.5,1.62-8.1c1.08-2.6,2.59-4.89,4.53-6.87,1.94-1.98,4.24-3.56,6.9-4.74,2.66-1.18,5.57-1.77,8.73-1.77s6.18.62,8.82,1.86c2.64,1.24,4.9,2.88,6.78,4.92,1.88,2.04,3.33,4.36,4.35,6.96,1.02,2.6,1.53,5.26,1.53,7.98s-.54,5.49-1.62,8.07-2.58,4.86-4.5,6.84c-1.92,1.98-4.21,3.57-6.87,4.77-2.66,1.2-5.57,1.8-8.73,1.8ZM378.12,359.03c0,1.44.2,2.83.6,4.17.4,1.34,1,2.53,1.8,3.57.8,1.04,1.81,1.88,3.03,2.52,1.22.64,2.67.96,4.35.96s3.14-.33,4.38-.99c1.24-.66,2.25-1.52,3.03-2.58.78-1.06,1.36-2.27,1.74-3.63.38-1.36.57-2.74.57-4.14s-.2-2.83-.6-4.17c-.4-1.34-1.01-2.52-1.83-3.54-.82-1.02-1.84-1.84-3.06-2.46-1.22-.62-2.65-.93-4.29-.93s-3.13.32-4.35.96c-1.22.64-2.23,1.49-3.03,2.55-.8,1.06-1.39,2.26-1.77,3.6s-.57,2.71-.57,4.11Z" fill="#7042bf"/><path d="M420.48,380.27v-42.6h11.7v32.4h19.32v10.2h-31.02Z" fill="#7042bf"/><path d="M480.24,380.63c-3.24,0-6.18-.62-8.82-1.86-2.64-1.24-4.9-2.87-6.78-4.89-1.88-2.02-3.34-4.33-4.38-6.93-1.04-2.6-1.56-5.28-1.56-8.04s.54-5.5,1.62-8.1c1.08-2.6,2.59-4.89,4.53-6.87,1.94-1.98,4.24-3.56,6.9-4.74,2.66-1.18,5.57-1.77,8.73-1.77s6.18.62,8.82,1.86c2.64,1.24,4.9,2.88,6.78,4.92,1.88,2.04,3.33,4.36,4.35,6.96,1.02,2.6,1.53,5.26,1.53,7.98s-.54,5.49-1.62,8.07-2.58,4.86-4.5,6.84c-1.92,1.98-4.21,3.57-6.87,4.77-2.66,1.2-5.57,1.8-8.73,1.8ZM470.58,359.03c0,1.44.2,2.83.6,4.17.4,1.34,1,2.53,1.8,3.57.8,1.04,1.81,1.88,3.03,2.52,1.22.64,2.67.96,4.35.96s3.14-.33,4.38-.99c1.24-.66,2.25-1.52,3.03-2.58.78-1.06,1.36-2.27,1.74-3.63.38-1.36.57-2.74.57-4.14s-.2-2.83-.6-4.17c-.4-1.34-1.01-2.52-1.83-3.54-.82-1.02-1.84-1.84-3.06-2.46-1.22-.62-2.65-.93-4.29-.93s-3.13.32-4.35.96c-1.22.64-2.23,1.49-3.03,2.55-.8,1.06-1.39,2.26-1.77,3.6s-.57,2.71-.57,4.11Z" fill="#7042bf"/><path d="M512.94,380.27v-42.6h19.56c2.08,0,4,.43,5.76,1.29,1.76.86,3.27,1.98,4.53,3.36s2.25,2.96,2.97,4.74c.72,1.78,1.08,3.57,1.08,5.37,0,2.48-.54,4.79-1.62,6.93-1.08,2.14-2.58,3.89-4.5,5.25l9,15.66h-13.2l-7.5-13.08h-4.38v13.08h-11.7ZM524.64,356.99h7.38c.72,0,1.39-.4,2.01-1.2.62-.8.93-1.92.93-3.36s-.36-2.61-1.08-3.39c-.72-.78-1.44-1.17-2.16-1.17h-7.08v9.12Z" fill="#7042bf"/></g></svg>