<?xml version="1.0" encoding="UTF-8"?>
<svg id="Layer_1" xmlns="http://www.w3.org/2000/svg" xmlns:xlink="http://www.w3.org/1999/xlink" version="1.1" viewBox="0 0 458.92 450.84">
  <!-- Generator: Adobe Illustrator 30.0.0, SVG Export Plug-In . SVG Version: 2.1.1 Build 123)  -->
  <defs>
    <style>
      .st0, .st1, .st2, .st3, .st4, .st5, .st6 {
        fill: none;
      }

      .st1 {
        clip-path: url(#clippath-3);
      }

      .st2 {
        clip-path: url(#clippath-9);
      }

      .st3 {
        clip-path: url(#clippath-6);
      }

      .st4 {
        clip-path: url(#clippath-15);
      }

      .st5 {
        clip-path: url(#clippath-12);
      }

      .st7 {
        font-size: 60px;
      }

      .st7, .st8 {
        letter-spacing: .1em;
      }

      .st7, .st8, .st9, .st10 {
        fill: #7042bf;
        font-family: GoboldBold, 'Gobold Bold';
      }

      .st11 {
        fill: #c02235;
      }

      .st11, .st12 {
        display: none;
      }

      .st6 {
        clip-path: url(#clippath);
      }

      .st12 {
        fill: #7143c0;
      }

      .st13 {
        clip-path: url(#clippath-17);
      }

      .st14 {
        clip-path: url(#clippath-11);
      }

      .st15 {
        clip-path: url(#clippath-16);
      }

      .st16 {
        clip-path: url(#clippath-10);
      }

      .st17 {
        clip-path: url(#clippath-13);
      }

      .st18 {
        clip-path: url(#clippath-14);
      }

      .st19 {
        clip-path: url(#clippath-1);
      }

      .st20 {
        clip-path: url(#clippath-4);
      }

      .st21 {
        clip-path: url(#clippath-2);
      }

      .st22 {
        clip-path: url(#clippath-7);
      }

      .st23 {
        clip-path: url(#clippath-8);
      }

      .st24 {
        clip-path: url(#clippath-5);
      }

      .st25 {
        fill: #3e55fc;
      }

      .st26 {
        fill: #4bff29;
      }

      .st8 {
        font-size: 20px;
      }

      .st9 {
        font-size: 58.36px;
        letter-spacing: .2em;
      }

      .st10 {
        font-size: 175.08px;
        letter-spacing: .1em;
      }
    </style>
    <clipPath id="clippath">
      <path class="st0" d="M293.16,297.51c-.13.23-.23.46-.36.66-1.31,2.2-3.68,3.91-6.25,3.98-.85.04-1.68-.13-2.5-.36-11.27-3.02-8.78-16.5-11.41-25.24-.72-2.4-2.2-5.1-4.7-5.29-1.44-.1-2.79.72-3.81,1.77-2.11,2.14-3.06,5.13-4.37,7.82-1.32,2.7-3.36,5.42-6.31,5.98-3.42.62-6.7-1.97-8.32-5.06-1.61-3.09-2-6.64-2.93-9.99-.92-3.36-2.66-6.8-5.79-8.29-4.73-2.2-10.48,1.21-12.88,5.88-2.07,4.04-2.53,9.07-5.82,12.2-3.36,3.16-9.24,3.09-12.49-.2-2.79-2.83-3.48-7.23-6.25-10.12-2.86-2.96-7.79-3.62-11.3-1.51-3.35,2-5.06,5.91-5.85,9.73-.79,3.81-.85,7.75-1.94,11.5-.59,2-1.51,4.01-3.16,5.29-3.09,2.37-7.82,1.35-10.62-1.38-2.79-2.7-4.01-6.61-4.8-10.42-1.97-9.66-.82-19.76-.82-29.58v-59h134.63c0,18.83,0,67.81.06,86.64,0,4.73.2,10.62-2.04,14.99h0ZM293.16,297.51"/>
    </clipPath>
    <clipPath id="clippath-1">
      <rect class="st6" x="-252.25" y="-143.19" width="960" height="768"/>
    </clipPath>
    <clipPath id="clippath-2">
      <rect class="st0" x="160.07" y="195.73" width="135.36" height="106.56"/>
    </clipPath>
    <clipPath id="clippath-3">
      <path class="st0" d="M160.21,188.09v15.25c0,10.68-.16,21.36.53,32.01.49,7.17.03,20.18,9.46,22.12,4.11.82,8.28-1.87,10.45-5.45,2.17-3.59,2.79-7.82,3.42-11.96.59-4.14,1.25-8.41,3.48-11.93,1.58-2.5,4.24-4.63,7.17-4.37,2.76.23,4.89,2.5,6.31,4.86,1.88,3.16,2.89,6.71,4.44,9.99,1.55,3.29,3.85,6.51,7.23,7.92,4.44,1.84,9.89-.1,12.95-3.78,2.01-2.4,2.53-5.06,3.71-7.83,1.41-3.35,2.66-6.77,4.18-10.06,1.97-4.27,4.47-8.41,8.09-11.47,3.61-3.06,8.45-4.87,13.11-4.04,4.44.79,7.73,3.81,10.16,7.43,2.86,4.24,3.19,9.3,5,14.04,1.58,4.08,4.83,8.05,9.24,8.38,4.04.3,7.75-2.7,9.6-6.31,1.84-3.61,2.2-7.75,2.63-11.8.33-3.09.66-6.31,1.87-9.2,1.15-2.73,2.01-3.85,2.01-6.97v-16.83h-135.03ZM160.21,188.09"/>
    </clipPath>
    <clipPath id="clippath-4">
      <rect class="st1" x="-252.25" y="-143.19" width="960" height="768"/>
    </clipPath>
    <clipPath id="clippath-5">
      <rect class="st0" x="160.07" y="188.05" width="135.36" height="69.6"/>
    </clipPath>
    <clipPath id="clippath-6">
      <path class="st0" d="M227.95,101.87l12.62,2.07c-2.14-7.17-1.32-15.45.66-22.84,2.73-10.22,7.36-20.08,8.05-30.64,1.05-15.77-7.59-31.82-21.33-39.61-13.77,7.79-22.38,23.83-21.33,39.61.72,10.55,5.32,20.41,8.05,30.64,2.66,9.89,3.25,21.3-2.56,29.61l-51.44,29.71v37.47h134.63v-37.47l-67.35-38.55ZM224.01,157.06h-10.45v-10.42h10.45v10.42ZM224.01,142.69h-10.45v-10.45h10.45v10.45ZM222.69,38.11c0-2.89,2.34-5.26,5.26-5.26s5.26,2.34,5.26,5.26-2.37,5.26-5.26,5.26-5.26-2.37-5.26-5.26h0ZM238.37,157.06h-10.45v-10.42h10.45v10.42ZM238.37,142.69h-10.45v-10.45h10.45v10.45ZM238.37,142.69"/>
    </clipPath>
    <clipPath id="clippath-7">
      <rect class="st3" x="-252.25" y="-143.19" width="960" height="768"/>
    </clipPath>
    <clipPath id="clippath-8">
      <rect class="st0" x="160.55" y="10.69" width="134.88" height="167.28"/>
    </clipPath>
    <clipPath id="clippath-9">
      <path class="st0" d="M1576.73,314.31c-.13.23-.23.46-.36.66-1.31,2.2-3.68,3.91-6.25,3.98-.85.04-1.68-.13-2.5-.36-11.27-3.02-8.78-16.5-11.41-25.24-.72-2.4-2.2-5.1-4.7-5.29-1.44-.1-2.79.72-3.81,1.77-2.11,2.14-3.06,5.13-4.37,7.82-1.32,2.7-3.36,5.42-6.31,5.98-3.42.62-6.7-1.97-8.32-5.06-1.61-3.09-2-6.64-2.93-9.99-.92-3.36-2.66-6.8-5.79-8.29-4.73-2.2-10.48,1.21-12.88,5.88-2.07,4.04-2.53,9.07-5.82,12.2-3.36,3.16-9.24,3.09-12.49-.2-2.79-2.83-3.48-7.23-6.25-10.12-2.86-2.96-7.79-3.62-11.3-1.51-3.35,2-5.06,5.91-5.85,9.73-.79,3.81-.85,7.75-1.94,11.5-.59,2-1.51,4.01-3.16,5.29-3.09,2.37-7.82,1.35-10.62-1.38-2.79-2.7-4.01-6.61-4.8-10.42-1.97-9.66-.82-19.76-.82-29.58v-59h134.63c0,18.83,0,67.81.06,86.64,0,4.73.2,10.62-2.04,14.99h0ZM1576.73,314.31"/>
    </clipPath>
    <clipPath id="clippath-10">
      <rect class="st2" x="1427.42" y="185.07" width="169.24" height="148.09"/>
    </clipPath>
    <clipPath id="clippath-11">
      <rect class="st0" x="1443.64" y="212.54" width="135.36" height="106.56"/>
    </clipPath>
    <clipPath id="clippath-12">
      <path class="st0" d="M1443.77,204.89v15.25c0,10.68-.16,21.36.53,32.01.49,7.17.03,20.18,9.46,22.12,4.11.82,8.28-1.87,10.45-5.45,2.17-3.59,2.79-7.82,3.42-11.96.59-4.14,1.25-8.41,3.48-11.93,1.58-2.5,4.24-4.63,7.17-4.37,2.76.23,4.89,2.5,6.31,4.86,1.88,3.16,2.89,6.71,4.44,9.99,1.55,3.29,3.85,6.51,7.23,7.92,4.44,1.84,9.89-.1,12.95-3.78,2.01-2.4,2.53-5.06,3.71-7.83,1.41-3.35,2.66-6.77,4.18-10.06,1.97-4.27,4.47-8.41,8.09-11.47,3.61-3.06,8.45-4.87,13.11-4.04,4.44.79,7.73,3.81,10.16,7.43,2.86,4.24,3.19,9.3,5,14.04,1.58,4.08,4.83,8.05,9.24,8.38,4.04.3,7.75-2.7,9.6-6.31,1.84-3.61,2.2-7.75,2.63-11.8.33-3.09.66-6.31,1.87-9.2,1.15-2.73,2.01-3.85,2.01-6.97v-16.83h-135.03ZM1443.77,204.89"/>
    </clipPath>
    <clipPath id="clippath-13">
      <rect class="st5" x="1427.42" y="185.07" width="169.24" height="148.09"/>
    </clipPath>
    <clipPath id="clippath-14">
      <rect class="st0" x="1443.64" y="204.86" width="135.36" height="69.6"/>
    </clipPath>
    <clipPath id="clippath-15">
      <path class="st0" d="M1511.51,118.68l12.62,2.07c-2.14-7.17-1.32-15.45.66-22.84,2.73-10.22,7.36-20.08,8.05-30.64,1.05-15.77-7.59-31.82-21.33-39.61-13.77,7.79-22.38,23.83-21.33,39.61.72,10.55,5.32,20.41,8.05,30.64,2.66,9.89,3.25,21.3-2.56,29.61l-51.44,29.71v37.47h134.63v-37.47l-67.35-38.55ZM1507.57,173.86h-10.45v-10.42h10.45v10.42ZM1507.57,159.5h-10.45v-10.45h10.45v10.45ZM1506.25,54.91c0-2.89,2.34-5.26,5.26-5.26s5.26,2.34,5.26,5.26-2.37,5.26-5.26,5.26-5.26-2.37-5.26-5.26h0ZM1521.93,173.86h-10.45v-10.42h10.45v10.42ZM1521.93,159.5h-10.45v-10.45h10.45v10.45ZM1521.93,159.5"/>
    </clipPath>
    <clipPath id="clippath-16">
      <rect class="st4" x="1435.56" y="12.57" width="161.11" height="188.21"/>
    </clipPath>
    <clipPath id="clippath-17">
      <rect class="st0" x="1444.12" y="27.5" width="134.88" height="167.28"/>
    </clipPath>
  </defs>
  <g class="st19">
    <g class="st21">
      <image width="288" height="226" transform="translate(159.11 303.64) scale(.48 -.48)" xlink:href="hoc-logo-1.png"/>
    </g>
  </g>
  <path class="st25" d="M244.17,252.24c1.74,3.52,1.91,8.29,4.6,11.31,4.77,5.36,12.52,2.37,14.46-3.84.23-.69.36-1.41.53-2.11.33-1.28.75-2.53,1.28-3.75.33-.76.72-1.48,1.25-2.11,1.84-2.14,5.29-2.4,7.82-1.12,2.53,1.28,4.27,3.75,5.43,6.34,1.02,2.27,1.67,4.73,3.09,6.8,1.38,2.07,3.78,3.75,6.24,3.35,1.94-.33,3.48-1.87,4.44-3.58,1.91-3.45,1.88-7.59,1.81-11.5-.23-13.84-.1-27.68-.1-41.51v-22.78h-134.63v26.69c0,7.36-.46,16.63,2.82,23.5,2.73,5.72,7.86,9.96,14.3,9.5,4.64-.33,8.71-1.48,12.63,1.91,1.87,1.61,3.19,3.75,4.21,6.02,3.38,7.62,3.25,16.24,4.11,24.55.36,3.62.99,7.27,2.8,10.39,1.84,3.12,5.12,5.62,8.74,5.52,3.22-.07,6.18-2.17,7.95-4.9,1.78-2.7,2.56-5.95,3.06-9.14.89-5.62.98-11.34,1.45-17.03.43-5.42,1.54-11.37,5.88-14.62,2.17-1.61,4.9-2.34,7.56-2.37,2.01-.03,4.08.33,5.69,1.51,1.25.72,2.04,1.78,2.6,2.96h0ZM244.17,252.24"/>
  <g class="st20">
    <g class="st24">
      <image width="288" height="149" transform="translate(159.11 258.84) scale(.48 -.48)" xlink:href="hoc-logo-2.png"/>
    </g>
  </g>
  <path class="st26" d="M295.36,183.98c0,3.65-.03,8.41-.06,9.14-.07,4.8-1.15,9.76-3.36,14.1-.63,1.21-1.38,2.4-2.43,3.29-1.91,1.64-4.6,2.2-7.07,1.67-2.47-.56-4.6-2.14-6.05-4.17-1.61-2.27-2.63-5.26-5.23-6.25-1.41-.53-2.99-.33-4.4.2-1.38.5-2.66,1.29-3.68,2.34-3.48,3.61-4.21,9.83-4.37,14.59-.13,3.78.1,7.56-.39,11.3-.52,3.75-1.87,7.53-4.66,10.06-2.8,2.53-7.23,3.48-10.45,1.51-1.12-.69-2.04-1.71-2.79-2.79-4.24-6.14-3.39-14.13-4.8-21.13-.75-3.65-2.33-6.84-4.93-9.5-2.46-2.53-6.02-2.23-8.97-.46-2.27,1.35-3.95,3.55-5.03,5.95-1.94,4.34-3.19,8.48-8.58,9.3-2,.3-4.21-.1-5.82-1.38-.86-.69-1.55-1.58-2.07-2.56-1.78-3.16-2.14-6.9-2.5-10.49-.36-3.61-.79-7.33-2.66-10.45-1.84-3.12-5.52-5.46-9.04-4.57-3.52.86-5.62,4.47-6.67,7.92-.95,3.12-1.38,6.47-2.66,9.46-.82,1.94-2.23,3.78-4.24,4.44-2.7.89-5.72-.59-7.46-2.79-4.67-5.85-4.8-15.32-4.83-22.42v-6.31h135.22ZM295.36,183.98"/>
  <g class="st22">
    <g class="st23">
      <image width="288" height="352" transform="translate(159.24 179.04) scale(.48 -.48)" xlink:href="hoc-logo-3.png"/>
    </g>
  </g>
  <path class="st12" d="M-104.56,390.29h12.54c.5,0,.84-.33.84-.84v-56.83c0-.5-.33-.84-.84-.84h-12.54c-.5,0-.83.33-.83.84v21.31c0,.51-.33.84-.84.84h-2.51c-.5,0-.84-.33-.84-.84v-21.31c0-.5-.33-.84-.84-.84h-12.53c-.5,0-.84.33-.84.84v56.83c0,.5.33.84.84.84h12.53c.5,0,.84-.33.84-.84v-21.31c0-.5.33-.84.84-.84h2.51c.5,0,.84.33.84.84v21.31c0,.5.33.84.83.84h0ZM-63.44,390.29h12.53c.49,0,.84-.33.84-.84v-12.54c0-.5.33-.83.84-.83h2.51c.49,0,.84.33.84.83v12.54c0,.5.33.84.83.84h12.54c.49,0,.84-.33.84-.84v-45.72c0-8.36-3.93-12.78-12.8-12.78h-7.02c-8.36,0-12.78,3.93-12.78,12.78v45.72c0,.5.33.84.84.84h0ZM-46.72,363.55h-2.51c-.5,0-.84-.33-.84-.84v-16.71c0-1.08.49-1.67,1.67-1.67h.83c1.08,0,1.67.5,1.67,1.67v16.71c0,.5-.35.84-.84.84h0ZM8.02,391.13h7.02c8.86,0,12.78-4.43,12.78-12.78v-45.72c0-.5-.33-.84-.84-.84h-12.54c-.5,0-.84.33-.84.84v43.46c0,.92-.75,1.67-1.67,1.67h-.84c-.92,0-1.67-.75-1.67-1.67v-43.46c0-.5-.33-.84-.84-.84H-3.94c-.5,0-.84.33-.84.84v45.72c0,8.85,4.44,12.78,12.8,12.78h0ZM67.51,391.13h7.02c8.36,0,12.8-3.93,12.8-12.78v-12.29c0-8.86-4.44-12.78-12.8-12.78h-3.92c-.92,0-1.67-.77-1.67-1.67v-5.61c0-1.08.5-1.67,1.67-1.67h.84c1.08,0,1.67.5,1.67,1.67v3.76c0,.5.33.84.84.84h12.54c.5,0,.84-.33.84-.84v-6.02c0-8.36-3.93-12.78-12.8-12.78h-7.02c-8.36,0-12.78,3.93-12.78,12.78v9.54c0,8.85,4.43,12.78,12.78,12.78h3.93c.92,0,1.67.75,1.67,1.67v8.36c0,.92-.75,1.67-1.67,1.67h-.84c-.92,0-1.67-.75-1.67-1.67v-6.27c0-.5-.33-.84-.84-.84h-12.54c-.5,0-.84.33-.84.84v8.53c0,8.36,3.92,12.78,12.78,12.78h0ZM167.29,391.13h7.03c8.84,0,12.78-4.43,12.78-12.78v-34.61c0-8.36-3.93-12.78-12.78-12.78h-7.03c-8.36,0-12.78,3.93-12.78,12.78v34.61c0,8.85,4.42,12.78,12.78,12.78h0ZM171.22,377.76h-.84c-.92,0-1.67-.75-1.67-1.67v-30.09c0-1.08.5-1.67,1.67-1.67h.84c1.08,0,1.67.5,1.67,1.67v30.09c0,.92-.75,1.67-1.67,1.67h0ZM214.85,390.29h12.53c.49,0,.84-.33.84-.84v-21.31c0-.5.33-.84.84-.84h11.7c.49,0,.84-.33.84-.83v-10.87c0-.5-.35-.84-.84-.84h-11.7c-.5,0-.84-.33-.84-.84v-8.77c0-.5.33-.84.84-.84h13.37c.49,0,.84-.33.84-.84v-10.86c0-.5-.35-.84-.84-.84h-27.58c-.5,0-.84.33-.84.84v56.83c0,.5.33.84.84.84h0ZM323.23,391.13h7.02c8.86,0,12.79-4.43,12.79-12.78v-14.38c0-.5-.33-.84-.84-.84h-12.53c-.5,0-.84.33-.84.84v12.12c0,.92-.75,1.67-1.67,1.67h-.83c-.93,0-1.67-.75-1.67-1.67v-30.09c0-1.08.5-1.67,1.67-1.67h.83c1.08,0,1.67.5,1.67,1.67v12.12c0,.5.33.84.84.84h12.53c.5,0,.84-.33.84-.84v-14.38c0-8.36-3.93-12.78-12.79-12.78h-7.02c-8.36,0-12.78,3.93-12.78,12.78v34.61c0,8.85,4.42,12.78,12.78,12.78h0ZM382.74,391.13h7.02c8.86,0,12.78-4.43,12.78-12.78v-34.61c0-8.36-3.92-12.78-12.78-12.78h-7.02c-8.35,0-12.79,3.93-12.79,12.78v34.61c0,8.85,4.44,12.78,12.79,12.78h0ZM386.66,377.76h-.84c-.91,0-1.67-.75-1.67-1.67v-30.09c0-1.08.5-1.67,1.67-1.67h.84c1.09,0,1.67.5,1.67,1.67v30.09c0,.92-.75,1.67-1.67,1.67h0ZM430.29,390.29h27.58c.5,0,.84-.33.84-.84v-10.86c0-.5-.33-.84-.84-.84h-13.37c-.5,0-.84-.33-.84-.84v-44.29c0-.5-.33-.84-.84-.84h-12.53c-.5,0-.84.33-.84.84v56.83c0,.5.33.84.84.84h0ZM498.4,391.13h7.02c8.86,0,12.8-4.43,12.8-12.78v-34.61c0-8.36-3.93-12.78-12.8-12.78h-7.02c-8.36,0-12.78,3.93-12.78,12.78v34.61c0,8.85,4.43,12.78,12.78,12.78h0ZM502.33,377.76h-.84c-.92,0-1.67-.75-1.67-1.67v-30.09c0-1.08.49-1.67,1.67-1.67h.84c1.08,0,1.67.5,1.67,1.67v30.09c0,.92-.77,1.67-1.67,1.67h0ZM545.95,390.29h12.54c.5,0,.83-.33.83-.84v-17.97c0-.5.33-.84.84-.84h1.67c.92,0,1.67.75,1.67,1.67v17.13c0,.5.33.84.84.84h12.54c.5,0,.84-.33.84-.84v-15.71c0-5.78-1.76-9.61-5.85-11.54,4.02-1.83,5.85-5.68,5.85-11.44v-6.2c0-8.36-3.92-12.78-12.78-12.78h-18.14c-.92,0-1.67.75-1.67,1.67v55.99c0,.5.33.84.84.84h0ZM561.82,358.12h-1.67c-.5,0-.84-.33-.84-.84v-12.12c0-.5.33-.84.84-.84h1.67c1.1,0,1.67.5,1.67,1.67v10.44c0,.92-.75,1.67-1.67,1.67h0ZM561.82,358.12"/>
  <path class="st11" d="M-30.95,457.2h7.94c.45,0,.82-.37.82-.82v-7.67c0-.45.37-.82.82-.82h2.85c5.79,0,8.37-2.9,8.37-8.37v-12.28c0-5.48-2.58-8.37-8.37-8.37h-12.16c-.45,0-.82.37-.82.82v36.96c0,.33.22.55.55.55h0ZM-20.55,439.68h-.82c-.46,0-.83-.37-.83-.83v-10.94c0-.46.37-.82.82-.82h.82c.71,0,1.09.33,1.09,1.1v10.4c0,.6-.49,1.09-1.09,1.09h0ZM17.83,457.2h7.94c.45,0,.82-.37.82-.82v-7.67c0-.45.37-.82.82-.82h1.09c.45,0,.82.37.82.82v7.67c0,.45.37.82.82.82h7.67c.45,0,.82-.37.82-.82v-29.68c0-5.48-2.58-8.37-8.39-8.37h-4.6c-5.47,0-8.37,2.58-8.37,8.37v29.96c0,.33.22.55.55.55h0ZM28.79,439.68h-1.37c-.45,0-.82-.37-.82-.82v-10.67c0-.71.33-1.1,1.09-1.1h.55c.7,0,1.09.33,1.09,1.1v10.95c0,.33-.21.55-.55.55h0ZM66.62,457.2h8.21c.32,0,.55-.22.55-.55v-37.24c0-.33-.23-.55-.55-.55h-7.94c-.45,0-.82.37-.82.82v36.96c0,.33.21.55.55.55h0ZM116.39,457.2h6.94c.45,0,.82-.37.82-.82v-36.68c0-.45-.37-.82-.82-.82h-7.94c-.32,0-.55.21-.55.55v13.76c0,.33-.47.38-.54.06l-3.18-13.98c-.06-.23-.33-.39-.55-.39h-7.23c-.32,0-.55.21-.55.55v37.24c0,.33.23.55.55.55h7.94c.45,0,.82-.37.82-.82v-13.49c0-.33.47-.38.54-.06l3.19,13.98c.06.23.33.39.55.39h0ZM158.16,457.2h7.94c.46,0,.83-.37.83-.83v-28.47c0-.46.37-.82.82-.82h4.37c.45,0,.82-.37.82-.82v-6.57c0-.45-.37-.82-.82-.82h-19.71c-.45,0-.82.37-.82.82v6.57c0,.45.37.82.82.82h4.38c.45,0,.82.37.82.82v28.75c0,.33.21.55.55.55h0ZM200.93,457.2h7.94c.45,0,.82-.37.82-.82v-36.69c0-.45-.37-.82-.82-.82h-7.66c-.45,0-.82.37-.82.82v36.96c0,.33.22.55.55.55h0ZM250.69,457.2h6.96c.45,0,.82-.37.82-.82v-36.69c0-.45-.37-.82-.82-.82h-7.67c-.45,0-.82.37-.82.82v13.49c0,.33-.47.38-.54.06l-3.19-13.98c-.04-.23-.32-.39-.55-.39h-6.94c-.46,0-.83.37-.83.83v36.68c0,.45.37.82.82.82h7.67c.45,0,.82-.37.82-.82v-13.49c0-.33.47-.38.54-.06l3.18,13.98c.06.23.33.39.55.39h0ZM294.28,457.75h4.6c5.8,0,8.39-2.9,8.39-8.37v-12.16c0-.33-.23-.55-.55-.55h-9.3c-.46,0-.83.37-.83.83v6.84c0,.33.22.55.55.55h.27c.32,0,.55.21.55.55v2.47c0,.61-.5,1.09-1.1,1.09h-.27c-.76,0-1.37-.61-1.37-1.37v-19.44c0-.71.32-1.1,1.09-1.1h.55c.71,0,1.1.33,1.1,1.1v4.92c0,.46.37.83.83.83h7.93c.32,0,.55-.22.55-.55v-6.68c0-5.48-2.58-8.37-8.39-8.37h-4.6c-5.47,0-8.37,2.58-8.37,8.37v22.68c0,5.79,2.9,8.37,8.37,8.37h0ZM371.42,457.2h17.8c.45,0,.82-.37.82-.82v-6.57c0-.45-.37-.82-.82-.82h-8.21c-.45,0-.82-.37-.82-.82v-28.47c0-.45-.37-.82-.82-.82h-7.67c-.45,0-.82.37-.82.82v36.96c0,.33.22.55.55.55h0ZM418.02,457.2h17.8c.45,0,.82-.37.82-.82v-6.57c0-.45-.37-.82-.82-.82h-8.21c-.45,0-.82-.37-.82-.82v-28.47c0-.45-.37-.82-.82-.82h-7.67c-.45,0-.82.37-.82.82v36.96c0,.33.21.55.55.55h0ZM472.44,457.75h4.6c5.8,0,8.38-2.9,8.38-8.37v-9.15c0-.45-.37-.82-.82-.82h-7.66c-.45,0-.82.37-.82.82v7.39c0,.76-.61,1.37-1.37,1.37h0c-.76,0-1.37-.61-1.37-1.37v-19.44c0-.71.33-1.1,1.09-1.1h.55c.71,0,1.1.33,1.1,1.1v7.66c0,.45.37.82.82.82h7.66c.45,0,.82-.37.82-.82v-9.15c0-5.48-2.58-8.37-8.38-8.37h-4.6c-5.48,0-8.37,2.58-8.37,8.37v22.68c0,5.79,2.9,8.37,8.37,8.37h0ZM472.44,457.75"/>
  <text class="st8" transform="translate(117 433.03)"><tspan x="0" y="0">RESIDENTIAL PAINTING</tspan></text>
  <text class="st7" transform="translate(4.49 391.13)"><tspan x="0" y="0">HAUS OF COLOR</tspan></text>
  <g class="st16">
    <g class="st14">
      <image width="288" height="226" transform="translate(1442.68 320.44) scale(.48 -.48)" xlink:href="hoc-logo-4.png"/>
    </g>
  </g>
  <path class="st25" d="M1527.73,269.05c1.74,3.52,1.91,8.29,4.6,11.31,4.77,5.36,12.52,2.37,14.46-3.84.23-.69.36-1.41.53-2.11.33-1.28.75-2.53,1.28-3.75.33-.76.72-1.48,1.25-2.11,1.84-2.14,5.29-2.4,7.82-1.12,2.53,1.28,4.27,3.75,5.43,6.34,1.02,2.27,1.67,4.73,3.09,6.8,1.38,2.07,3.78,3.75,6.24,3.35,1.94-.33,3.48-1.87,4.44-3.58,1.91-3.45,1.88-7.59,1.81-11.5-.23-13.84-.1-27.68-.1-41.51v-22.78h-134.63v26.69c0,7.36-.46,16.63,2.82,23.5,2.73,5.72,7.86,9.96,14.3,9.5,4.64-.33,8.71-1.48,12.63,1.91,1.87,1.61,3.19,3.75,4.21,6.02,3.38,7.62,3.25,16.24,4.11,24.55.36,3.62.99,7.27,2.8,10.39,1.84,3.12,5.12,5.62,8.74,5.52,3.22-.07,6.18-2.17,7.95-4.9,1.78-2.7,2.56-5.95,3.06-9.14.89-5.62.98-11.34,1.45-17.03.43-5.42,1.54-11.37,5.88-14.62,2.17-1.61,4.9-2.34,7.56-2.37,2.01-.03,4.08.33,5.69,1.51,1.25.72,2.04,1.78,2.6,2.96h0ZM1527.73,269.05"/>
  <g class="st17">
    <g class="st18">
      <image width="288" height="149" transform="translate(1442.68 275.64) scale(.48 -.48)" xlink:href="hoc-logo-5.png"/>
    </g>
  </g>
  <path class="st26" d="M1578.93,200.78c0,3.65-.03,8.41-.06,9.14-.07,4.8-1.15,9.76-3.36,14.1-.63,1.21-1.38,2.4-2.43,3.29-1.91,1.64-4.6,2.2-7.07,1.67-2.47-.56-4.6-2.14-6.05-4.17-1.61-2.27-2.63-5.26-5.23-6.25-1.41-.53-2.99-.33-4.4.2-1.38.5-2.66,1.29-3.68,2.34-3.48,3.61-4.21,9.83-4.37,14.59-.13,3.78.1,7.56-.39,11.3-.52,3.75-1.87,7.53-4.66,10.06-2.8,2.53-7.23,3.48-10.45,1.51-1.12-.69-2.04-1.71-2.79-2.79-4.24-6.14-3.39-14.13-4.8-21.13-.75-3.65-2.33-6.84-4.93-9.5-2.46-2.53-6.02-2.23-8.97-.46-2.27,1.35-3.95,3.55-5.03,5.95-1.94,4.34-3.19,8.48-8.58,9.3-2,.3-4.21-.1-5.82-1.38-.86-.69-1.55-1.58-2.07-2.56-1.78-3.16-2.14-6.9-2.5-10.49-.36-3.61-.79-7.33-2.66-10.45-1.84-3.12-5.52-5.46-9.04-4.57-3.52.86-5.62,4.47-6.67,7.92-.95,3.12-1.38,6.47-2.66,9.46-.82,1.94-2.23,3.78-4.24,4.44-2.7.89-5.72-.59-7.46-2.79-4.67-5.85-4.8-15.32-4.83-22.42v-6.31h135.22ZM1578.93,200.78"/>
  <g class="st15">
    <g class="st13">
      <image width="288" height="352" transform="translate(1442.8 195.85) scale(.48 -.48)" xlink:href="hoc-logo-6.png"/>
    </g>
  </g>
  <g>
    <text class="st9" transform="translate(1632.59 307.43)"><tspan x="0" y="0">RESIDENTIAL PAINTING</tspan></text>
    <text class="st10" transform="translate(1632.59 199.93)"><tspan x="0" y="0">HAUS OF COLOR</tspan></text>
  </g>
</svg>