<?xml version="1.0" encoding="UTF-8"?><svg id="b" xmlns="http://www.w3.org/2000/svg" xmlns:xlink="http://www.w3.org/1999/xlink" viewBox="0 0 900.33 308.26"><defs><linearGradient id="d" x1="71.48" y1="200.83" x2="71.48" y2="309.9" gradientUnits="userSpaceOnUse"><stop offset="0" stop-color="#fad860"/><stop offset="1" stop-color="#f76e1e"/></linearGradient><linearGradient id="e" x1="71.55" y1="190.02" x2="71.55" y2="304.61" gradientUnits="userSpaceOnUse"><stop offset=".32" stop-color="#3e55fc"/><stop offset="1" stop-color="#2d3db6"/></linearGradient><linearGradient id="f" x1="71.51" y1="192.37" x2="71.51" y2="259.59" gradientUnits="userSpaceOnUse"><stop offset="0" stop-color="#ee4a59"/><stop offset="1" stop-color="#a2071e"/></linearGradient><linearGradient id="g" x1="71.55" y1="184.44" x2="71.55" y2="245.88" gradientUnits="userSpaceOnUse"><stop offset="0" stop-color="#4bff29"/><stop offset="1" stop-color="#38971f"/></linearGradient><linearGradient id="h" x1="71.79" y1="5.11" x2="71.79" y2="170.92" gradientUnits="userSpaceOnUse"><stop offset="0" stop-color="#7218e8"/><stop offset="1" stop-color="#e95f62"/></linearGradient></defs><g id="c"><path d="M193.28,271.69v-45.39h19.56c2.22,0,4.26.46,6.14,1.37,1.88.92,3.48,2.11,4.83,3.58,1.34,1.47,2.4,3.15,3.17,5.05.77,1.9,1.15,3.8,1.15,5.72s-.36,3.95-1.09,5.85c-.72,1.9-1.74,3.58-3.04,5.05-1.3,1.47-2.88,2.64-4.73,3.52-1.85.87-3.89,1.31-6.11,1.31h-7.42v13.94h-12.47ZM205.75,246.89h6.58c.77,0,1.48-.35,2.14-1.05.66-.7.99-1.97.99-3.8s-.38-3.15-1.15-3.83c-.77-.68-1.53-1.02-2.3-1.02h-6.26v9.72Z" fill="#ffffff"/><path d="M254.33,226.31h11.38l15.73,45.39h-12.66l-2.75-8.89h-12.08l-2.68,8.89h-12.72l15.79-45.39ZM264.05,254.5l-4.03-14.06-4.22,14.06h8.25Z" fill="#ffffff"/><path d="M298,271.69v-45.39h12.47v45.39h-12.47Z" fill="#ffffff"/><path d="M343.51,249.38v22.31h-12.47v-45.39h9.72l18.22,23.08v-23.08h12.47v45.39h-9.91l-18.03-22.31Z" fill="#ffffff"/><path d="M427.38,237.17h-13.04v34.52h-12.47v-34.52h-13.1v-10.87h38.61v10.87Z" fill="#ffffff"/><path d="M444.7,271.69v-45.39h12.47v45.39h-12.47Z" fill="#ffffff"/><path d="M490.22,249.38v22.31h-12.47v-45.39h9.72l18.22,23.08v-23.08h12.47v45.39h-9.91l-18.03-22.31Z" fill="#ffffff"/><path d="M569.55,267.92c-3.24,2.73-6.97,4.09-11.19,4.09-2.94,0-5.75-.52-8.44-1.57-2.69-1.04-5.03-2.57-7.03-4.57-2-2-3.6-4.45-4.79-7.35-1.19-2.9-1.79-6.2-1.79-9.91,0-3.2.6-6.17,1.79-8.92s2.83-5.13,4.92-7.16c2.09-2.02,4.55-3.62,7.38-4.79,2.83-1.17,5.89-1.76,9.17-1.76,2.05,0,4.01.22,5.88.67,1.87.45,3.61,1.11,5.21,1.98,1.6.87,3.04,1.92,4.31,3.13s2.32,2.59,3.13,4.12l-9.27,7.1c-.9-1.79-2.24-3.23-4.03-4.31s-3.69-1.63-5.69-1.63c-1.49,0-2.86.3-4.09.9-1.24.6-2.3,1.43-3.2,2.49-.89,1.07-1.6,2.33-2.11,3.8-.51,1.47-.77,3.08-.77,4.83s.26,3.41.77,4.86c.51,1.45,1.22,2.7,2.14,3.74.92,1.04,2.01,1.85,3.29,2.43,1.28.58,2.71.86,4.28.86,3.62,0,6.82-1.49,9.59-4.48h-7.86v-8.95h18.67v24.16h-10.29v-3.77Z" fill="#ffffff"/><path d="M625.93,271.69v-45.39h12.47v34.52h20.58v10.87h-33.05Z" fill="#ffffff"/><path d="M676.11,271.69v-45.39h12.47v34.52h20.58v10.87h-33.05Z" fill="#ffffff"/><path d="M723.23,248.62c0-2.77.52-5.5,1.57-8.18,1.04-2.68,2.57-5.09,4.57-7.22,2-2.13,4.43-3.86,7.29-5.18,2.85-1.32,6.12-1.98,9.78-1.98,4.39,0,8.19.91,11.41,2.72,3.22,1.81,5.61,4.21,7.19,7.19l-9.52,6.78c-.43-1.11-.99-2.02-1.69-2.75s-1.48-1.3-2.33-1.73c-.85-.43-1.74-.72-2.65-.89-.92-.17-1.8-.26-2.65-.26-1.79,0-3.33.35-4.63,1.05-1.3.7-2.37,1.62-3.2,2.75-.83,1.13-1.45,2.41-1.85,3.83-.41,1.43-.61,2.84-.61,4.25,0,1.58.23,3.09.7,4.54.47,1.45,1.15,2.73,2.05,3.84.9,1.11,1.99,1.99,3.29,2.65,1.3.66,2.76.99,4.38.99.85,0,1.73-.1,2.62-.29.9-.19,1.76-.51,2.59-.96.83-.45,1.58-1.02,2.24-1.73s1.18-1.57,1.57-2.59l10.16,6.07c-.68,1.66-1.72,3.15-3.1,4.47-1.39,1.32-2.96,2.43-4.73,3.32-1.77.89-3.67,1.58-5.69,2.05-2.03.47-4,.7-5.91.7-3.37,0-6.45-.67-9.24-2.01-2.79-1.34-5.2-3.12-7.22-5.34s-3.59-4.73-4.7-7.54c-1.11-2.81-1.66-5.67-1.66-8.57Z" fill="#ffffff"/><path d="M195.45,106.81h15.53v39.23h9.19v-39.23h15.53v93.38h-15.53v-39.23h-9.19v39.23h-15.53v-93.38Z" fill="#ffffff"/><path d="M296.66,166.71l4.43,33.49h-15.67l-2.57-19.4h-11.43l-2.61,19.4h-15.63l4.43-33.35,9.47-60.03h20.15l9.42,59.89ZM280.85,165.87l-3.73-28.27-3.73,28.27h7.46Z" fill="#ffffff"/><path d="M358.36,181.49c0,13.43-6.72,20.17-20.15,20.2-13.4,0-20.1-6.73-20.1-20.2v-74.68h15.53v74.68c0,3.51,1.52,5.27,4.57,5.27s4.62-1.76,4.62-5.27v-74.68h15.53v74.68Z" fill="#ffffff"/><path d="M378.64,125.52c0-13.43,6.7-20.15,20.1-20.15s20.15,6.72,20.15,20.15v13.25h-15.53v-13.25c0-3.48-1.52-5.24-4.57-5.27h-.09c-3.02,0-4.52,1.76-4.52,5.27v8.3c0,3.79,3.98,8.55,11.94,14.27,8.52,6.06,12.78,13.34,12.78,21.83v11.57c0,13.47-6.7,20.2-20.1,20.2-13.43-.03-20.15-6.76-20.15-20.2v-13.25h15.53v13.25c0,3.51,1.54,5.27,4.62,5.27s4.57-1.76,4.57-5.27v-10.45c0-4.14-3.98-9.06-11.94-14.79-8.52-6.06-12.78-13.45-12.78-22.16v-8.58Z" fill="#ffffff"/><path d="M512.22,181.49c0,13.43-6.72,20.17-20.15,20.2-13.4,0-20.1-6.73-20.1-20.2v-55.97c0-13.43,6.7-20.15,20.1-20.15s20.15,6.72,20.15,20.15v55.97ZM496.68,125.52c0-3.48-1.52-5.24-4.57-5.27h-.09c-3.02,0-4.52,1.76-4.52,5.27v55.97c0,3.51,1.52,5.27,4.57,5.27s4.62-1.76,4.62-5.27v-55.97Z" fill="#ffffff"/><path d="M532.96,106.81h36.57v14.88h-21.04v24.35h18.1v14.93h-18.1v39.23h-15.53v-93.38Z" fill="#ffffff"/><path d="M660.52,181.49c0,13.43-6.72,20.17-20.15,20.2-13.4,0-20.1-6.73-20.1-20.2v-55.97c0-13.43,6.7-20.15,20.1-20.15s20.15,6.72,20.15,20.15v13.25h-15.53v-13.25c0-3.48-1.52-5.24-4.57-5.27h-.09c-3.02,0-4.52,1.76-4.52,5.27v55.97c0,3.51,1.52,5.27,4.57,5.27s4.62-1.76,4.62-5.27v-13.25h15.53v13.25Z" fill="#ffffff"/><path d="M720.12,181.49c0,13.43-6.72,20.17-20.15,20.2-13.4,0-20.1-6.73-20.1-20.2v-55.97c0-13.43,6.7-20.15,20.1-20.15s20.15,6.72,20.15,20.15v55.97ZM704.59,125.52c0-3.48-1.52-5.24-4.57-5.27h-.09c-3.02,0-4.52,1.76-4.52,5.27v55.97c0,3.51,1.52,5.27,4.57,5.27s4.62-1.76,4.62-5.27v-55.97Z" fill="#ffffff"/><path d="M740.87,200.2v-93.38h15.53v78.5h21.04v14.88h-36.57Z" fill="#ffffff"/><path d="M834.25,181.49c0,13.43-6.72,20.17-20.15,20.2-13.4,0-20.1-6.73-20.1-20.2v-55.97c0-13.43,6.7-20.15,20.1-20.15s20.15,6.72,20.15,20.15v55.97ZM818.71,125.52c0-3.48-1.52-5.24-4.57-5.27h-.09c-3.02,0-4.52,1.76-4.52,5.27v55.97c0,3.51,1.52,5.27,4.57,5.27s4.62-1.76,4.62-5.27v-55.97Z" fill="#ffffff"/><path d="M854.99,106.81h20.38c12.5.03,18.75,6.76,18.75,20.2v13.76c0,8.46-3.39,13.93-10.17,16.42l14.97,43.01h-16.93l-10.63-40.16h-.84v40.16h-15.53v-93.38ZM870.53,121.69v24.35h1.87c1.68,0,2.77-.09,3.26-.28,1.96-.78,2.94-2.44,2.94-4.99v-13.76c0-3.54-1.52-5.32-4.57-5.32h-3.5Z" fill="#ffffff"/><path d="M140.77,303.36c-.14.24-.24.49-.38.7-1.39,2.33-3.89,4.14-6.61,4.21-.9.04-1.77-.14-2.64-.38-11.93-3.2-9.29-17.46-12.07-26.71-.76-2.54-2.33-5.4-4.97-5.6-1.53-.1-2.96.76-4.03,1.88-2.23,2.26-3.24,5.43-4.63,8.28-1.39,2.85-3.55,5.74-6.68,6.33-3.62.66-7.09-2.08-8.8-5.35-1.7-3.27-2.12-7.03-3.1-10.57-.97-3.55-2.82-7.2-6.12-8.77-5.01-2.33-11.1,1.29-13.63,6.23-2.19,4.28-2.68,9.6-6.15,12.91-3.55,3.34-9.78,3.27-13.22-.21-2.96-2.99-3.69-7.66-6.61-10.72-3.03-3.13-8.24-3.83-11.96-1.6-3.55,2.12-5.36,6.26-6.19,10.3-.83,4.04-.9,8.21-2.05,12.17-.63,2.12-1.6,4.24-3.34,5.6-3.27,2.51-8.28,1.43-11.24-1.46-2.96-2.85-4.25-6.99-5.08-11.02-2.09-10.23-.87-20.91-.87-31.31v-62.44h142.48c0,19.93,0,71.76.07,91.69,0,5.01.21,11.24-2.15,15.86h0Z" fill="url(#d)"/><path d="M88.92,255.46c1.84,3.72,2.02,8.77,4.87,11.97,5.04,5.67,13.25,2.51,15.3-4.07.24-.73.38-1.5.56-2.23.35-1.36.8-2.68,1.36-3.96.35-.8.76-1.57,1.32-2.23,1.95-2.26,5.6-2.54,8.28-1.18,2.68,1.36,4.52,3.96,5.74,6.71,1.08,2.4,1.77,5.01,3.27,7.2,1.46,2.19,4,3.96,6.61,3.55,2.05-.35,3.69-1.98,4.7-3.79,2.02-3.65,1.98-8.04,1.91-12.17-.24-14.65-.1-29.29-.1-43.93v-24.11H.26v28.25c0,7.79-.49,17.6,2.99,24.87,2.89,6.05,8.31,10.54,15.13,10.05,4.91-.35,9.22-1.57,13.36,2.02,1.98,1.7,3.37,3.96,4.45,6.37,3.58,8.07,3.44,17.18,4.35,25.98.38,3.83,1.05,7.69,2.96,10.99,1.95,3.31,5.42,5.95,9.25,5.85,3.41-.07,6.54-2.29,8.42-5.18,1.88-2.85,2.71-6.3,3.24-9.67.94-5.95,1.04-12,1.53-18.02.45-5.74,1.63-12.03,6.23-15.48,2.29-1.7,5.18-2.47,8-2.5,2.13-.03,4.32.35,6.02,1.6,1.32.76,2.16,1.88,2.75,3.13h0Z" fill="url(#e)"/><path d="M.07,187.56v16.14c0,11.3-.17,22.61.56,33.88.52,7.59.03,21.36,10.02,23.41,4.35.87,8.77-1.98,11.06-5.77,2.3-3.8,2.96-8.28,3.62-12.66.63-4.39,1.32-8.9,3.69-12.63,1.67-2.64,4.49-4.9,7.59-4.63,2.92.24,5.18,2.65,6.68,5.15,1.98,3.34,3.06,7.1,4.7,10.57,1.64,3.48,4.07,6.89,7.65,8.38,4.7,1.95,10.47-.1,13.7-4,2.12-2.54,2.68-5.36,3.93-8.28,1.5-3.55,2.82-7.16,4.42-10.64,2.09-4.52,4.73-8.9,8.56-12.14,3.82-3.24,8.94-5.15,13.88-4.28,4.7.83,8.18,4.04,10.75,7.86,3.03,4.49,3.37,9.85,5.29,14.85,1.67,4.32,5.11,8.52,9.78,8.87,4.28.31,8.21-2.85,10.16-6.68,1.95-3.82,2.33-8.21,2.78-12.48.35-3.27.69-6.68,1.98-9.74,1.22-2.89,2.12-4.07,2.12-7.37v-17.81H.07Z" fill="url(#f)"/><path d="M143.1,183.21c0,3.86-.03,8.9-.07,9.67-.07,5.08-1.22,10.33-3.55,14.92-.66,1.29-1.46,2.54-2.57,3.48-2.02,1.74-4.87,2.33-7.48,1.77-2.61-.59-4.87-2.26-6.4-4.42-1.7-2.4-2.78-5.57-5.53-6.61-1.49-.56-3.16-.35-4.66.21-1.46.52-2.82,1.36-3.9,2.47-3.68,3.82-4.45,10.4-4.63,15.44-.14,4,.11,8-.42,11.96-.55,3.97-1.98,7.97-4.94,10.65-2.96,2.68-7.66,3.69-11.06,1.6-1.18-.73-2.16-1.81-2.96-2.96-4.49-6.5-3.58-14.96-5.08-22.36-.8-3.86-2.47-7.24-5.22-10.05-2.61-2.68-6.37-2.37-9.5-.49-2.4,1.43-4.17,3.76-5.32,6.3-2.05,4.59-3.37,8.97-9.08,9.84-2.12.31-4.45-.1-6.16-1.46-.9-.73-1.64-1.67-2.19-2.71-1.88-3.34-2.26-7.3-2.65-11.1-.38-3.82-.84-7.76-2.82-11.06-1.95-3.31-5.85-5.78-9.57-4.84-3.73.91-5.95,4.73-7.06,8.38-1.01,3.3-1.46,6.85-2.82,10.02-.87,2.06-2.36,4-4.49,4.7-2.85.94-6.06-.62-7.9-2.96C.17,207.42.03,197.4,0,189.89v-6.68h143.1Z" fill="url(#g)"/><path d="M71.76,96.32l13.36,2.19c-2.26-7.59-1.39-16.35.7-24.18,2.88-10.82,7.79-21.25,8.52-32.42,1.12-16.69-8.03-33.67-22.58-41.91-14.57,8.24-23.69,25.22-22.57,41.91.77,11.17,5.63,21.6,8.52,32.42,2.82,10.47,3.44,22.54-2.71,31.34L.55,137.12v39.65h142.48v-39.65l-71.28-40.8ZM67.59,154.72h-11.06v-11.03h11.06v11.03ZM67.59,139.52h-11.06v-11.06h11.06v11.06ZM66.19,28.84c0-3.06,2.47-5.57,5.56-5.57s5.57,2.47,5.57,5.57-2.5,5.56-5.57,5.56-5.56-2.5-5.56-5.56h0ZM82.79,154.72h-11.06v-11.03h11.06v11.03ZM82.79,139.52h-11.06v-11.06h11.06v11.06Z" fill="url(#h)"/></g></svg>